HIERARCHY
ROOT Hips
{
	OFFSET 0.000000 88.474243 0.000000
	CHANNELS 6 Xposition Yposition Zposition Zrotation Yrotation Xrotation 
	JOINT Hips_Spine
	{
		OFFSET 0.000000 0.000000 0.000000
		CHANNELS 3 Zrotation Yrotation Xrotation
		JOINT Spine
		{
			OFFSET 0.005100 8.711998 -0.691000
			CHANNELS 3 Zrotation Yrotation Xrotation
			JOINT Spine1
			{
				OFFSET -0.009200 8.660301 -1.275000
				CHANNELS 3 Zrotation Yrotation Xrotation
				JOINT Spine2
				{
					OFFSET 0.006300 9.852501 -1.857000
					CHANNELS 3 Zrotation Yrotation Xrotation
					JOINT Spine2_Neck
					{
						OFFSET 0.000000 0.000000 0.000000
						CHANNELS 3 Zrotation Yrotation Xrotation
						JOINT Neck
						{
							OFFSET 0.016300 11.420799 -0.263300
							CHANNELS 3 Zrotation Yrotation Xrotation
							End Site #name: Head
							{
								OFFSET -0.019200 9.262405 2.362500
							}
						}
					}
					JOINT Spine2_LeftShoulder
					{
						OFFSET 0.000000 0.000000 0.000000
						CHANNELS 3 Zrotation Yrotation Xrotation
						JOINT LeftShoulder
						{
							OFFSET 5.616900 6.732201 -0.345700
							CHANNELS 3 Zrotation Yrotation Xrotation
							JOINT LeftArm
							{
								OFFSET 10.664888 -0.183372 -2.440700
								CHANNELS 3 Zrotation Yrotation Xrotation
								JOINT LeftForeArm
								{
									OFFSET 27.459126 0.000000 0.000000
									CHANNELS 3 Zrotation Yrotation Xrotation
									End Site #name: LeftHand
									{
										OFFSET 21.306858 0.000000 0.000000
									}
								}
							}
						}
					}
					JOINT Spine2_RightShoulder
					{
						OFFSET 0.000000 0.000000 0.000000
						CHANNELS 3 Zrotation Yrotation Xrotation
						JOINT RightShoulder
						{
							OFFSET -5.580300 6.737503 -0.344400
							CHANNELS 3 Zrotation Yrotation Xrotation
							JOINT RightArm
							{
								OFFSET -10.679335 -0.188484 -2.383900
								CHANNELS 3 Zrotation Yrotation Xrotation
								JOINT RightForeArm
								{
									OFFSET -27.503529 0.000000 0.000000
									CHANNELS 3 Zrotation Yrotation Xrotation
									End Site #name: RightHand
									{
										OFFSET -21.306808 0.000000 0.000000
									}
								}
							}
						}
					}
				}
			}
		}
	}
	JOINT Hips_LeftUpLeg
	{
		OFFSET 0.000000 0.000000 0.000000
		CHANNELS 3 Zrotation Yrotation Xrotation
		JOINT LeftUpLeg
		{
			OFFSET 6.857700 -6.739601 0.312100
			CHANNELS 3 Zrotation Yrotation Xrotation
			JOINT LeftLeg
			{
				OFFSET -0.367590 -34.731552 -4.572400
				CHANNELS 3 Zrotation Yrotation Xrotation
				End Site #name: LeftFoot
				{
					OFFSET 0.367590 -34.656704 -6.067400
				}
			}
		}
	}
	JOINT Hips_RightUpLeg
	{
		OFFSET 0.000000 0.000000 0.000000
		CHANNELS 3 Zrotation Yrotation Xrotation
		JOINT RightUpLeg
		{
			OFFSET -6.876100 -6.733299 0.301000
			CHANNELS 3 Zrotation Yrotation Xrotation
			JOINT RightLeg
			{
				OFFSET 0.347353 -34.795158 -4.515900
				CHANNELS 3 Zrotation Yrotation Xrotation
				End Site #name: RightFoot
				{
					OFFSET -0.347353 -34.589367 -6.070300
				}
			}
		}
	}
}
MOTION
Frames: 17
Frame Time: 0.041667
19.634470 0.503045 88.930376 1.796319 7.514096 -3.728073 0.000000 0.000000 -0.000000 -10.104112 -2.067711 14.466248 2.774602 -2.891797 -3.127038 0.000000 0.000000 0.000000 2.513717 -3.001308 -2.780410 6.404650 2.484767 0.249772 2.620037 -2.769253 -2.579594 0.455669 -6.318797 1.922131 -69.380035 -18.786123 14.821219 -2.368358 -22.182754 7.555868 2.459568 -2.763317 -2.988969 3.918547 -0.921648 0.669166 69.372764 -5.924874 4.183605 10.176083 15.864290 18.650469 0.000000 -0.000000 -0.000000 -2.383218 12.170128 -1.552934 -8.604801 -17.095269 22.516804 -0.000000 -0.000000 0.000000 -0.653139 -6.122633 -31.432320 1.760893 6.090395 -9.197459 
19.566222 -0.106818 92.534160 1.263616 6.837372 -3.481017 0.000000 0.000000 -0.000000 -9.424651 -2.656717 14.361422 2.844846 -3.049375 -3.086454 0.000000 0.000000 0.000000 2.627748 -3.146712 -2.757049 6.464381 1.761209 -1.378442 2.740947 -2.930993 -2.554046 0.557899 -6.038876 1.886420 -70.180927 -20.419819 16.899829 -1.946848 -21.981097 7.325574 2.558916 -2.913594 -2.954174 3.954903 -0.945272 0.675960 69.431506 -6.190291 4.442307 10.156216 15.688234 18.752244 0.000000 -0.000000 0.000000 -0.492999 12.978374 1.654985 -9.153836 -18.826749 22.130062 -0.000000 -0.000000 0.000000 1.389771 -7.441784 -30.098660 1.469970 8.106097 -9.658818 
19.530919 -0.850006 96.250680 0.607277 7.091005 -3.456917 0.000000 0.000000 -0.000000 -8.383033 -3.094171 14.030132 2.924242 -3.181477 -3.013045 0.000000 0.000000 0.000000 2.724254 -3.255667 -2.721660 6.529761 1.074522 -2.701492 2.847298 -3.059170 -2.510834 0.496397 -5.662022 1.867228 -70.659823 -21.126386 17.987874 -1.805206 -21.832939 7.549851 2.650990 -3.033469 -2.902085 3.900893 -0.812572 0.712552 69.634962 -6.074425 4.876449 9.880874 15.773891 18.605291 0.000000 -0.000000 -0.000000 1.779996 13.945023 5.721517 -10.642059 -21.180950 20.126738 -0.000000 -0.000000 0.000000 4.567339 -8.541082 -30.297674 2.192662 9.449172 -1.198899 
19.519814 -1.558621 100.014196 -0.258701 8.039249 -3.756484 0.000000 0.000000 -0.000000 -6.972126 -3.310884 13.540473 2.992848 -3.291602 -2.949465 0.000000 0.000000 0.000000 2.802542 -3.332818 -2.699893 6.585687 0.506902 -3.372885 2.935623 -3.148702 -2.472234 0.276564 -5.244310 1.870301 -70.888561 -20.987648 18.010395 -1.978142 -21.737882 8.132895 2.742548 -3.115659 -2.863582 3.786651 -0.611679 0.745720 69.940270 -5.641153 5.381621 9.417905 16.262523 18.239632 0.000000 -0.000000 -0.000000 4.283914 12.709298 10.588057 -10.315506 -20.858370 19.073938 -0.000000 -0.000000 0.000000 7.069817 -9.305355 -30.697739 3.829222 9.634302 11.454972 
19.513592 -2.020264 103.767920 -1.326440 9.952142 -4.313891 0.000000 0.000000 0.000000 -5.137141 -3.249905 13.097822 3.029543 -3.354843 -2.902981 0.000000 0.000000 0.000000 2.849878 -3.356753 -2.693161 6.695855 0.135483 -3.186286 2.975076 -3.173155 -2.429483 -0.070682 -4.839455 1.889374 -70.857262 -20.016865 17.045636 -2.446909 -21.482898 9.015712 2.792061 -3.143617 -2.828188 3.607712 -0.360658 0.785015 70.271297 -4.795648 6.100318 8.752273 17.199246 17.645229 0.000000 -0.000000 -0.000000 6.893773 9.931592 12.054275 -10.086463 -18.233292 24.174239 -0.000000 -0.000000 0.000000 7.778343 -9.451421 -30.194539 3.801264 8.199232 18.709530 
19.544988 -2.069321 107.359294 -2.456240 12.825403 -5.044797 0.000000 0.000000 0.000000 -3.048910 -2.979966 12.842209 3.009179 -3.342774 -2.863175 0.000000 0.000000 0.000000 2.834194 -3.263878 -2.627595 6.703550 -0.111405 -2.378169 2.934503 -3.089529 -2.377727 -0.507218 -4.409694 1.909321 -70.621513 -18.293533 15.193138 -3.182151 -20.976823 10.097164 2.765170 -3.072133 -2.768543 3.315194 -0.032120 0.805331 70.614299 -3.608226 7.027750 7.844629 18.503449 16.813377 -0.000000 -0.000000 -0.000000 7.773834 7.582199 8.558452 -11.109096 -14.612241 33.847269 -0.000000 -0.000000 0.000000 8.448492 -9.016612 -28.688675 3.458193 6.306109 24.365778 
19.671445 -1.692130 110.680562 -3.465069 16.226198 -5.903766 0.000000 0.000000 0.000000 -1.066144 -2.500222 12.779643 2.908640 -3.215636 -2.784131 0.000000 0.000000 0.000000 2.732725 -3.042585 -2.567423 6.375765 -0.236679 -1.377063 2.794773 -2.870913 -2.304812 -1.032744 -3.920329 1.929169 -70.280531 -15.744765 12.366464 -4.084175 -20.251407 11.243448 2.638732 -2.864068 -2.728914 3.040322 0.367864 0.827937 71.013572 -2.158952 8.116894 6.747811 19.969088 15.820703 -0.000000 0.000000 -0.000000 8.416709 6.780556 0.429740 -11.343225 -10.435268 45.375487 -0.000000 -0.000000 0.000000 9.060317 -8.654886 -26.365627 2.468737 3.642533 27.426151 
19.934423 -1.048808 113.682179 -4.339821 20.115561 -6.825519 0.000000 0.000000 0.000000 0.623953 -2.027952 13.102687 2.665637 -2.894240 -2.726240 0.000000 0.000000 0.000000 2.489464 -2.637823 -2.572580 5.449911 -0.413931 -0.997517 2.516747 -2.461559 -2.215135 -1.643505 -3.282857 1.926216 -69.978198 -12.151379 8.793806 -4.962795 -18.755341 12.397983 2.396621 -2.490606 -2.683115 2.883804 0.794782 0.881075 71.436300 -0.555704 9.249506 5.193556 21.209683 14.561832 -0.000000 0.000000 -0.000000 9.438823 4.811196 -10.000315 -9.599169 -6.304986 55.217304 -0.000000 -0.000000 0.000000 9.710825 -8.654956 -23.551556 1.247083 1.626002 28.283127 
20.328500 -0.326529 116.450145 -4.821187 23.410716 -7.657444 0.000000 -0.000000 0.000000 1.947682 -1.552342 13.636634 2.253346 -2.261084 -2.630438 0.000000 0.000000 0.000000 2.072816 -2.072813 -2.599256 3.988660 -0.467892 -1.418527 2.064042 -1.899440 -2.066509 -2.339246 -2.387678 1.899760 -69.867556 -7.776129 4.433426 -5.684762 -16.203461 13.257530 1.976493 -1.965081 -2.617488 2.772942 1.322458 0.958912 71.814762 1.104893 10.578768 3.611771 22.499277 13.369562 -0.000000 0.000000 -0.000000 10.250387 3.149177 -19.523492 -6.552614 -3.570862 60.594104 -0.000000 -0.000000 0.000000 9.960053 -8.517076 -20.164966 0.765087 0.891375 27.199713 
20.839970 0.420835 119.070832 -4.846509 25.945691 -8.143576 0.000000 -0.000000 0.000000 2.853483 -0.766009 14.038977 1.651263 -1.443231 -2.541411 0.000000 0.000000 0.000000 1.391588 -1.383473 -2.534353 2.584886 -0.643744 -2.076581 1.438577 -1.223466 -1.855978 -3.127204 -1.103743 1.825282 -70.718137 -4.008361 2.020736 -6.308457 -13.923211 13.957489 1.390808 -1.332205 -2.551253 2.702110 1.905238 1.029962 71.521134 2.997754 13.446214 2.104466 23.664224 12.355991 -0.000000 0.000000 -0.000000 10.246047 2.252233 -27.037470 0.045120 0.297540 63.412343 -0.000000 -0.000000 0.000000 9.833583 -8.828209 -16.355602 1.276141 1.461788 25.192818 
21.468818 1.138446 121.564365 -4.599837 27.846827 -8.365813 0.000000 -0.000000 0.000000 3.939448 0.073691 15.010557 0.870739 -0.471299 -2.600261 0.000000 0.000000 0.000000 0.495693 -0.570598 -2.407809 1.209490 -0.740262 -2.610046 0.582199 -0.434320 -1.677812 -3.880501 0.365613 1.671984 -71.888052 -0.516597 0.118564 -6.625402 -11.573413 14.818748 0.656701 -0.722078 -2.525133 2.540373 2.827101 1.145792 71.143861 4.856082 16.482369 0.734093 24.629442 11.442110 -0.000000 0.000000 -0.000000 8.614695 2.684791 -31.256521 8.221764 4.780673 61.558755 -0.000000 0.000000 0.000000 9.519407 -9.453380 -12.243348 1.821223 2.599945 22.504343 
22.170742 1.672674 123.941998 -4.268569 28.302693 -8.332330 0.000000 -0.000000 0.000000 5.087600 0.374639 14.779919 -0.201210 0.675969 -2.612356 0.000000 0.000000 0.000000 -0.543030 0.356403 -2.407633 0.319572 -0.935160 -3.567388 -0.364964 0.707023 -1.628927 -4.720745 1.767594 1.447390 -72.827750 2.599586 -0.910210 -6.846165 -9.387423 15.968314 -0.392902 0.223214 -2.540301 1.937288 3.684901 1.185085 70.835628 6.412885 19.420249 0.313856 25.323004 10.913240 -0.000000 -0.000000 -0.000000 5.630123 4.057716 -31.440165 10.954607 7.546937 48.632853 -0.000000 0.000000 0.000000 9.055762 -10.201629 -8.608807 2.307264 4.026144 20.063270 
22.916739 1.887852 126.236716 -3.996456 27.744249 -7.944374 0.000000 -0.000000 0.000000 5.983509 0.772264 14.331610 -1.091095 1.603987 -2.577487 0.000000 0.000000 0.000000 -1.263603 1.165789 -2.489373 -0.469813 -1.060126 -4.382867 -1.185480 1.390343 -1.705120 -5.637807 3.013823 1.222209 -73.602544 5.173035 -1.835234 -7.042580 -8.052270 17.190876 -1.144674 1.084146 -2.633646 1.465363 4.172138 1.106766 70.822876 7.778646 22.456634 0.044466 26.003405 10.508749 -0.000000 0.000000 -0.000000 2.704162 4.347655 -30.349893 5.197697 4.868579 25.042492 -0.000000 0.000000 0.000000 8.598456 -10.839870 -5.595634 2.668150 5.581653 18.172399 
23.762656 1.730122 128.481990 -3.731175 26.801691 -7.376036 0.000000 -0.000000 0.000000 6.607175 1.011503 13.330111 -1.747642 2.271472 -2.698743 0.000000 0.000000 0.000000 -2.010025 1.696792 -2.679473 -1.671753 -1.213153 -5.439226 -1.830576 1.829571 -1.934654 -6.427759 3.995502 1.057763 -74.313748 7.363654 -2.735260 -6.982713 -6.847239 18.530367 -1.730896 1.737814 -2.898407 1.055381 4.124509 0.900562 70.809840 8.896746 24.750310 -0.121939 26.649211 10.196980 -0.000000 0.000000 -0.000000 0.630682 5.839645 -29.210208 0.695256 0.342203 3.980652 -0.000000 0.000000 0.000000 8.025684 -11.140681 -3.121604 3.024342 7.285225 16.936770 
24.780641 1.312446 130.773463 -3.385058 26.132908 -6.697068 0.000000 -0.000000 0.000000 7.008776 1.259677 12.294348 -2.297809 2.662432 -3.005046 0.000000 0.000000 0.000000 -2.567748 2.069984 -2.902857 -2.863230 -1.414035 -6.298267 -2.310472 2.146382 -2.186694 -7.488697 5.129402 0.867476 -74.817840 9.158619 -3.422952 -6.834485 -5.959935 19.841433 -2.384300 2.231918 -3.242663 0.802180 4.016403 0.722979 70.783033 9.701078 26.200431 -0.191153 27.182572 9.992788 -0.000000 0.000000 -0.000000 -0.282150 8.060944 -28.929426 -0.817569 -2.567263 -6.243060 -0.000000 0.000000 0.000000 7.214242 -11.452050 -0.618269 3.359935 8.881738 16.139250 
25.998874 0.718600 133.226964 -2.857270 25.246588 -5.744576 0.000000 -0.000000 0.000000 7.168814 1.483488 11.215603 -2.675812 2.899101 -3.154665 0.000000 0.000000 0.000000 -2.963435 2.380518 -3.131014 -3.902566 -1.596125 -7.070260 -2.648434 2.409634 -2.444003 -8.037636 6.149346 0.685426 -75.109071 10.607961 -4.007094 -6.612602 -5.436681 20.996177 -2.832456 2.607274 -3.514975 0.790754 3.673352 0.576113 70.694063 10.159796 26.832718 -0.175910 27.555519 9.903458 -0.000000 0.000000 -0.000000 -1.578119 10.870586 -27.836520 -0.953111 -2.863288 -6.394490 -0.000000 0.000000 0.000000 6.128145 -11.343259 1.764227 3.431410 9.848343 15.674140 
27.376329 0.086075 135.863218 -2.100694 23.939316 -4.504233 0.000000 -0.000000 0.000000 7.080841 1.715969 9.766945 -2.877341 3.047011 -3.250995 0.000000 0.000000 0.000000 -3.180842 2.591303 -3.252627 -4.656676 -1.746934 -7.703975 -2.814709 2.583325 -2.641220 -8.337405 6.854224 0.564064 -75.195871 11.552989 -4.426303 -6.400391 -5.255913 21.815748 -3.067725 2.855559 -3.701995 1.068349 3.206685 0.488546 70.553139 10.307266 26.709278 -0.116885 27.707679 9.974282 -0.000000 -0.000000 -0.000000 -3.031783 11.863083 -28.764714 -0.877067 -3.163442 0.495122 -0.000000 0.000000 0.000000 4.607086 -11.148046 4.019495 3.642112 10.286326 15.314203 
